<?xml version="1.0" encoding="UTF-8" standalone="no"?>
<!-- Created with Inkscape (http://www.inkscape.org/) -->

<svg
   version="1.1"
   id="svg1"
   width="113.20755"
   height="38.943398"
   viewBox="0 0 113.20755 38.943398"
   sodipodi:docname="skyline.png"
   inkscape:version="1.3.2 (091e20e, 2023-11-25, custom)"
   inkscape:dataloss="true"
   inkscape:export-filename="skyline.svg"
   inkscape:export-xdpi="96"
   inkscape:export-ydpi="96"
   xmlns:inkscape="http://www.inkscape.org/namespaces/inkscape"
   xmlns:sodipodi="http://sodipodi.sourceforge.net/DTD/sodipodi-0.dtd"
   xmlns="http://www.w3.org/2000/svg"
   xmlns:svg="http://www.w3.org/2000/svg">
  <defs
     id="defs1" />
  <sodipodi:namedview
     id="namedview1"
     pagecolor="#ffffff"
     bordercolor="#000000"
     borderopacity="0.25"
     inkscape:showpageshadow="2"
     inkscape:pageopacity="0.0"
     inkscape:pagecheckerboard="0"
     inkscape:deskcolor="#d1d1d1"
     inkscape:zoom="8.8007686"
     inkscape:cx="51.35915"
     inkscape:cy="22.213969"
     inkscape:window-width="1920"
     inkscape:window-height="1017"
     inkscape:window-x="-8"
     inkscape:window-y="-8"
     inkscape:window-maximized="1"
     inkscape:current-layer="g20" />
  <g
     inkscape:groupmode="layer"
     inkscape:label="Image"
     id="g1">
    <g
       id="g20"
       transform="translate(-4.8207615,-29.406646)">
      <path
         style="fill:#051e39"
         d="m 4.9814536,62.236835 v -6.113208 h 1.3437511 1.343751 L 8.249733,55.902816 8.8305103,55.682005 v -0.449614 -0.449615 l 0.4940272,-0.460256 0.4940273,-0.460256 0.1318761,-0.963658 0.1318761,-0.963658 0.95973,0.01959 c 0.527851,0.01078 1.012382,0.07225 1.076736,0.136602 0.06435,0.06435 0.172419,0.972516 0.240145,2.01814 0.06773,1.045624 0.169518,2.13038 0.226203,2.410568 l 0.103063,0.509434 0.731536,-8.46e-4 0.731535,-8.46e-4 0.721399,-0.439868 c 0.862094,-0.525656 0.778886,-1.180444 0.973139,-2.502513 l 0.125308,-2.552986 0.555672,-1.02427 0.527267,5.111558 0.100716,0.705095 0.441596,0.591469 h 0.768018 0.768018 l 0.138582,-2.857884 c 0.142565,-2.940016 0.238487,-3.368531 0.754033,-3.368531 h 0.299854 l 0.136523,0.509434 c 0.07509,0.280188 0.137914,1.451886 0.139614,2.603773 l 0.0031,2.09434 h 0.194161 0.194161 l 0.145989,-1.396754 c 0.08029,-0.768215 0.171224,-1.4209 0.202066,-1.450411 0.03084,-0.02951 0.919294,-0.08871 1.974338,-0.131547 l 1.918263,-0.07789 0.391406,0.821729 0.391407,0.821729 0.63246,0.158738 c 0.347854,0.08731 0.757706,0.262682 0.910784,0.389725 l 0.278322,0.230987 -0.325384,0.629223 -0.325384,0.629224 -0.831378,0.490525 -0.831378,0.490525 0.118509,2.64993 c 0.06518,1.457461 0.191759,2.828231 0.281288,3.046156 l 0.16278,0.396226 h 0.315399 0.315399 l 0.0031,-2.54717 c 0.0017,-1.400943 0.06729,-2.786964 0.145745,-3.080046 l 0.142654,-0.532878 3.420293,0.107944 3.420292,0.107944 0.841417,0.263655 c 0.46278,0.14501 0.979419,0.401657 1.148088,0.570326 0.168669,0.168669 0.503239,0.345808 0.743489,0.393643 l 0.436818,0.08697 v 1.918578 1.918579 l 0.226415,0.06997 0.226415,0.06997 0.147242,-0.522797 c 0.08098,-0.287538 0.157398,-1.049368 0.169811,-1.692957 0.02525,-1.309189 0.186311,-1.886443 0.526337,-1.886443 0.125898,0 0.577033,-0.30566 1.002523,-0.679245 l 0.773617,-0.679245 h 0.649032 0.649031 l 0.16088,2.574803 0.16088,2.574803 0.172776,0.279558 0.172777,0.279559 0.145896,-0.236065 0.145896,-0.236065 0.197567,-7.203203 0.197567,-7.203202 0.218367,-0.561057 0.218367,-0.561057 0.428736,0.787472 0.428736,0.787472 0.06972,6.283019 0.06972,6.283019 h 1.00575 1.00575 l 0.45283,0.452831 c 0.896696,0.896695 1.122069,0.506388 1.154645,-1.99965 l 0.02257,-1.7362 0.181277,0.566038 c 0.0997,0.311321 0.192554,1.228302 0.206338,2.037736 0.01378,0.809434 0.08821,1.853774 0.165401,2.320755 l 0.140341,0.849056 h 0.285774 0.285774 l 0.147561,-0.384538 c 0.08116,-0.211496 0.244062,-3.446402 0.362006,-7.18868 l 0.214445,-6.80414 0.25402,-1.235463 0.25402,-1.235462 0.3573,0.669424 0.3573,0.669425 0.154203,6.744815 c 0.08481,3.709648 0.205771,6.796382 0.268799,6.85941 0.06303,0.06303 0.182329,-0.424968 0.265114,-1.084437 0.08279,-0.659468 0.335391,-1.91224 0.561346,-2.783939 l 0.410828,-1.584905 0.173689,1.093479 0.17369,1.093479 0.326433,0.125264 0.326434,0.125264 0.215247,-0.215247 c 0.249734,-0.249734 0.455368,-1.463672 1.138004,-6.71806 l 0.495839,-3.816575 0.168809,0.307141 c 0.247169,0.449713 0.856563,4.23338 1.143453,7.099594 l 0.249291,2.490566 0.219264,0.409887 0.219264,0.409886 0.379968,-0.07318 0.379968,-0.07318 0.241699,-1.129163 0.241698,-1.129164 0.292041,1.81132 c 0.160623,0.996227 0.367743,1.948922 0.460267,2.1171 l 0.168225,0.305779 0.139006,-1.488585 0.139007,-1.488586 0.334629,-0.515307 0.334628,-0.515306 0.256469,-3.283019 c 0.141058,-1.805661 0.228345,-5.552112 0.368334,-8.292558 l 0.395932,-7.750777 0.404952,4.509949 c 0.09669,1.076838 0.321434,2.216107 0.351743,2.632725 0.01943,0.267055 -0.0118,0.481321 0.04621,0.693575 l 0.08539,-0.0028 0.113796,-0.08797 0.1542,-1.38469 c 0.07371,-0.66193 0.236453,-2.552486 0.387147,-4.270436 l 0.275555,-3.141404 0.173657,4.415094 c 0.09551,2.428302 0.236798,4.871486 0.313971,5.429299 l 0.140313,1.014204 0.184243,-0.606207 0.411495,-0.74824 0.328948,0.850441 c 0.09325,0.24109 0.185832,0.453832 0.253945,0.385718 0.149274,-0.149273 0.152457,-5.63928 0.453432,-7.99534 l 0.29126,-2.422482 0.268311,2.634694 c 0.107652,1.057091 0.212322,2.761966 0.148749,3.728961 l 0.1503,1.761823 0.07952,0.190885 0.335184,0.06306 0.10009,-0.213716 c 0.05031,-0.107413 0.112309,-0.680245 0.17619,-1.493729 l 0.402774,-5.129107 0.07545,0.02828 0.08965,0.01408 0.137018,7.197105 c 0.03509,1.842949 0.301413,5.181973 0.48498,7.423482 0.183567,2.24151 0.335127,4.808138 0.3368,5.703619 l 0.003,1.628147 0.22425,0.138594 0.224251,0.138595 1.058147,-0.807956 1.058146,-0.807955 0.47232,0.136199 c 0.259776,0.07491 0.679921,0.382135 0.933656,0.682723 l 0.461335,0.546525 h 0.49184 0.49184 l 0.271343,0.90566 0.271342,0.905661 h 0.303784 c 0.167081,0 0.313373,-0.02547 0.325093,-0.0566 0.01172,-0.03113 0.09077,-1.864092 0.17567,-4.073245 l 0.154362,-4.01664 0.394616,-0.394616 0.394615,-0.394616 0.391978,0.243462 c 0.215588,0.133904 0.535763,0.536925 0.7115,0.895603 l 0.319522,0.652141 0.08841,3.968484 c 0.04863,2.182666 0.13764,4.204153 0.197809,4.492195 l 0.109398,0.52371 0.605791,-0.07088 0.605791,-0.07088 0.156196,-0.566038 c 0.08591,-0.311321 0.178407,-1.177358 0.205553,-1.924528 0.02715,-0.74717 0.117652,-1.664151 0.201123,-2.037736 l 0.151765,-0.679245 0.274277,1.062525 0.274277,1.062525 0.0035,1.201626 0.0035,1.201626 0.21352,0.33773 0.21352,0.33773 0.263194,-0.263195 0.263194,-0.263194 0.184983,-9.58397 c 0.101718,-5.271141 0.243057,-11.434699 0.314064,-13.696752 l 0.129104,-4.112823 0.346616,-1.987645 0.346616,-1.987644 0.432474,-0.977678 0.432473,-0.977678 0.354055,-0.135864 0.354054,-0.135863 0.373535,0.308349 c 0.205445,0.169592 0.571651,0.755232 0.813793,1.301422 l 0.440257,0.993073 0.310011,1.723908 0.310011,1.723909 0.232758,5.094339 c 0.128016,2.801887 0.325735,9.101898 0.439375,14.000025 0.11364,4.898127 0.266041,8.965108 0.338669,9.037736 l 0.132051,0.132051 0.169811,-0.169746 0.169811,-0.169746 0.06143,-10.113273 c 0.03379,-5.5623 0.114818,-10.444405 0.180071,-10.849122 l 0.118642,-0.735849 H 90.237 91.698438 l 0.0016,8.320755 c 8.85e-4,4.576415 0.06746,9.0181 0.147942,9.870411 l 0.146333,1.549657 0.689859,-0.137971 0.689859,-0.137972 0.1776,-0.27961 0.177599,-0.279609 0.02586,-4.075472 c 0.01422,-2.24151 0.0922,-4.634788 0.173278,-5.318397 l 0.14742,-1.242924 0.416836,-0.07953 0.416837,-0.07953 0.44104,0.473401 c 0.242572,0.26037 0.585811,0.473401 0.762754,0.473401 h 0.321714 l 0.233939,0.849056 c 0.128666,0.466981 0.260114,1.144441 0.292107,1.505466 l 0.05817,0.656408 0.45283,0.249252 c 0.675798,0.37198 0.783929,0.604001 0.802034,1.72095 0.0091,0.560377 0.08843,1.426415 0.176327,1.924528 l 0.159812,0.905661 0.449781,0.06335 0.449782,0.06335 0.849059,-0.702476 0.84905,-0.702477 v -4.4933 -4.493301 l 0.14067,-0.366576 0.14067,-0.366575 0.76643,-0.320236 0.76644,-0.320236 0.22497,-0.591729 c 0.12374,-0.325451 0.22498,-0.9417 0.22498,-1.369442 v -0.777713 l 0.28301,-0.02294 c 0.48545,-0.03935 1.86396,0.06129 1.94716,0.142146 0.0436,0.04235 0.15217,4.310316 0.24131,9.48436 l 0.16207,9.407354 0.15492,0.154917 0.15491,0.154918 0.14119,-0.141182 0.14118,-0.141181 0.11883,-10.558228 0.11884,-10.558228 0.53177,-0.24229 0.53177,-0.24229 0.91829,0.275129 0.9183,0.275129 0.0863,0.270344 c 0.0475,0.148689 0.15503,1.881723 0.23898,3.851186 l 0.15263,3.580843 0.5415,0.584295 0.54151,0.584294 v 0.505253 0.505253 l 0.28302,0.234863 0.28301,0.234864 1.64151,0.161737 1.64151,0.161738 v 2.304829 2.304828 l -0.32438,0.439502 -0.32438,0.439501 -0.28694,-0.283019 c -0.37596,-0.370821 -0.57224,-0.357337 -0.72857,0.05005 l -0.12781,0.333071 0.34618,0.346175 0.34617,0.346174 h 0.74798 c 0.41139,0 1.06638,-0.06368 1.45553,-0.141509 l 0.70754,-0.141509 V 57.325726 55.64103 l -0.24104,-0.450396 -0.24104,-0.450396 -0.007,-3.163681 -0.007,-3.163681 0.36152,-0.551752 0.36152,-0.551751 v -1.06457 c 0,-0.585513 0.0412,-1.022117 0.0917,-0.97023 0.0504,0.05189 0.21544,2.586498 0.36674,5.632469 l 0.2751,5.53813 -0.25354,0.08451 -0.25354,0.08451 v 1.128093 1.128092 l 0.20249,0.381342 0.20248,0.381341 0.16603,4.358491 0.16602,4.358491 H 61.614115 4.9814536 Z m 10.9918144,-12.202059 -0.160709,-2.692624 0.130779,-0.749171 0.30122,-0.692359 0.307246,-0.69028 -0.14726,-2.224237 0.355546,2.264149 0.440764,0.588159 0.520217,0.437459 0.520217,0.465865 -0.785311,0.703022 c -0.357524,0.320061 -0.531213,0.680953 -0.646746,0.559289 0.310573,0.09139 0.06286,0.0124 -0.04702,0.18598 l -0.356024,0.116665 0.09456,2.160642 c 0.06763,1.227412 -0.213766,4.092291 -0.278166,4.092291 -0.06437,0 -0.246172,-3.015499 -0.334562,-4.496443 z m 51.015842,-13.878287 0.482912,-0.500787 0.427934,0.186478 0.115462,0.356918 -0.214885,0.527358 -0.527357,0.0018 z m -5.599893,-0.316719 0.458182,-0.206709 0.374576,0.112526 0.0337,0.46761 -0.392452,0.321435 -0.364046,-0.161476 z m 1.454933,-2.258649 0.604939,-0.665042 0.43105,0.301113 c 0.307977,0.215139 0.252476,0.781614 -0.07942,1.034328 l -0.638286,0.05146 z m 2.449894,-0.08501 0.372786,-0.764674 0.571286,0.106041 0.258813,0.603156 -0.08808,0.459788 c -0.183756,0.365158 -1.11857,0.271818 -1.114805,-0.404311 z"
         id="path20"
         sodipodi:nodetypes="cccccccccccccssscccsscccccccsscscccccssccccscccccssccccccccssscccccsssscccccccccccccccccccsscssscccsscccccsssscccccsscsscccccccsscccccsscsscccsscsscccssscsscccsscccssccccccsscccccssscccsscsscccsssccccccccccscccccccsscccssscccsscccsscccccsscccsscsscssscccccccccccsscsssccccccccccccscccccccccccccsscccsscccccccccscsccccccccccccccccccccccsccccsccccccccccccccccccsccccccccc" />
    </g>
  </g>
</svg>
